<svg width="29" height="29" viewBox="0 0 29 29" fill="none" xmlns="http://www.w3.org/2000/svg">
<g clip-path="url(#clip0_367_13907)">
<path d="M22.919 17.9643C22.3253 17.3461 21.6092 17.0156 20.8503 17.0156C20.0974 17.0156 19.3752 17.34 18.757 17.9582L16.8229 19.8862C16.6637 19.8005 16.5046 19.721 16.3516 19.6414C16.1312 19.5312 15.9231 19.4272 15.7456 19.317C13.9339 18.1663 12.2875 16.6667 10.7083 14.7265C9.94327 13.7594 9.42913 12.9454 9.05577 12.1191C9.55767 11.6601 10.0228 11.1826 10.4758 10.7236C10.6471 10.5522 10.8185 10.3747 10.9899 10.2033C12.2752 8.918 12.2752 7.25319 10.9899 5.96785L9.31896 4.29691C9.12922 4.10717 8.93336 3.91131 8.74974 3.71545C8.3825 3.33597 7.9969 2.94425 7.59906 2.57701C7.00536 1.98943 6.29536 1.67728 5.54864 1.67728C4.80192 1.67728 4.07969 1.98943 3.46762 2.57701C3.4615 2.58313 3.4615 2.58313 3.45538 2.58925L1.37436 4.68864C0.590919 5.47208 0.144112 6.4269 0.0461817 7.53474C-0.100714 9.32197 0.425662 10.9868 0.829625 12.0763C1.82117 14.751 3.30237 17.2298 5.51192 19.8862C8.19276 23.0873 11.4183 25.6151 15.103 27.3962C16.5107 28.0634 18.3898 28.853 20.4891 28.9876C20.6177 28.9937 20.7523 28.9999 20.8747 28.9999C22.2886 28.9999 23.476 28.4918 24.4064 27.4819C24.4125 27.4697 24.4247 27.4636 24.4308 27.4513C24.7491 27.0657 25.1164 26.7169 25.502 26.3435C25.7651 26.0925 26.0345 25.8294 26.2976 25.5539C26.9036 24.9235 27.2219 24.189 27.2219 23.4362C27.2219 22.6772 26.8975 21.9489 26.2793 21.3368L22.919 17.9643ZM25.1102 24.4094C25.1041 24.4094 25.1041 24.4155 25.1102 24.4094C24.8715 24.6664 24.6267 24.899 24.3635 25.1561C23.9657 25.5356 23.5617 25.9334 23.1822 26.3802C22.564 27.0413 21.8357 27.3534 20.8809 27.3534C20.7891 27.3534 20.6911 27.3534 20.5993 27.3473C18.7815 27.231 17.0922 26.521 15.8252 25.915C12.3609 24.238 9.31896 21.8571 6.79114 18.8396C4.70399 16.324 3.30849 13.9981 2.38427 11.5009C1.81505 9.97688 1.60695 8.78947 1.69876 7.66939C1.75996 6.95328 2.03539 6.35957 2.54341 5.85156L4.63055 3.76442C4.93046 3.48287 5.24873 3.32985 5.56089 3.32985C5.94649 3.32985 6.25864 3.56244 6.4545 3.7583C6.46062 3.76442 6.46674 3.77054 6.47286 3.77666C6.84622 4.12554 7.20122 4.48665 7.57458 4.87226C7.76432 5.06812 7.96018 5.26398 8.15604 5.46596L9.82698 7.1369C10.4758 7.78569 10.4758 8.38551 9.82698 9.0343C9.64948 9.2118 9.4781 9.38929 9.3006 9.56067C8.78647 10.087 8.29681 10.5767 7.76432 11.0541C7.75208 11.0664 7.73984 11.0725 7.73372 11.0847C7.20734 11.6111 7.30527 12.1252 7.41544 12.4741C7.42156 12.4925 7.42768 12.5108 7.4338 12.5292C7.86837 13.5819 8.48043 14.5735 9.41077 15.7548L9.41689 15.7609C11.1062 17.8419 12.8873 19.4639 14.852 20.7064C15.103 20.8655 15.36 20.994 15.6049 21.1165C15.8252 21.2266 16.0333 21.3307 16.2108 21.4409C16.2353 21.4531 16.2598 21.4715 16.2843 21.4837C16.4924 21.5878 16.6882 21.6367 16.8902 21.6367C17.3982 21.6367 17.7165 21.3184 17.8205 21.2144L19.9138 19.1211C20.1219 18.913 20.4524 18.6621 20.838 18.6621C21.2175 18.6621 21.5297 18.9008 21.7194 19.1089C21.7255 19.115 21.7255 19.115 21.7316 19.1211L25.1041 22.4936C25.7345 23.1179 25.7345 23.7606 25.1102 24.4094Z" fill="#FF4838"/>
<path d="M15.6723 6.89855C17.2759 7.16786 18.7327 7.92682 19.8956 9.08975C21.0585 10.2527 21.8113 11.7094 22.0868 13.313C22.1541 13.717 22.503 13.9985 22.9008 13.9985C22.9498 13.9985 22.9926 13.9924 23.0416 13.9863C23.4945 13.9128 23.7944 13.4844 23.721 13.0314C23.3905 11.0912 22.4724 9.32233 21.0707 7.9207C19.6691 6.51907 17.9002 5.60098 15.96 5.27046C15.5071 5.19701 15.0847 5.49693 15.0052 5.94373C14.9256 6.39054 15.2194 6.82511 15.6723 6.89855Z" fill="#FF4838"/>
<path d="M28.9662 12.7924C28.4215 9.59747 26.9158 6.69016 24.6022 4.37656C22.2886 2.06295 19.3813 0.557274 16.1863 0.0125362C15.7395 -0.0670323 15.3172 0.239 15.2376 0.685807C15.1642 1.13874 15.4641 1.56106 15.917 1.64063C18.7692 2.12416 21.3705 3.47682 23.4393 5.53948C25.5081 7.60826 26.8546 10.2095 27.3381 13.0618C27.4055 13.4657 27.7543 13.7473 28.1522 13.7473C28.2011 13.7473 28.244 13.7411 28.293 13.735C28.7398 13.6677 29.0458 13.2393 28.9662 12.7924Z" fill="#FF4838"/>
</g>
<defs>
<clipPath id="clip0_367_13907">
<rect width="29" height="29" fill="white"/>
</clipPath>
</defs>
</svg>
